# Blender 4.5.1 LTS
# www.blender.org
mtllib Truc_9cm.mtl
o Truc_9cm
v -4.980000 4.979991 -112.050003
v -4.980000 4.979991 -112.050003
v -4.980000 4.980009 112.050003
v -4.980000 4.980009 112.050003
v -4.904000 5.844991 -112.050003
v -4.904000 5.844991 -112.050003
v -4.904000 5.845008 112.050003
v -4.904000 5.845008 112.050003
v -4.904000 4.114991 -112.050003
v -4.904000 4.114991 -112.050003
v -4.904000 4.115008 112.050003
v -4.904000 4.115008 112.050003
v -4.680000 6.682992 -112.050003
v -4.680000 6.682992 -112.050003
v -4.680000 6.683009 112.050003
v -4.680000 6.683009 112.050003
v -4.680000 3.276992 -112.050003
v -4.680000 3.276992 -112.050003
v -4.680000 3.277008 112.050003
v -4.680000 3.277008 112.050003
v -4.313000 7.469991 -112.050003
v -4.313000 7.469991 -112.050003
v -4.313000 7.470008 112.050003
v -4.313000 7.470008 112.050003
v -4.313000 2.489992 -112.050003
v -4.313000 2.489992 -112.050003
v -4.313000 2.490008 112.050003
v -4.313000 2.490008 112.050003
v -3.815000 8.180991 -112.050003
v -3.815000 8.180991 -112.050003
v -3.815000 8.181008 112.050003
v -3.815000 8.181008 112.050003
v -3.815000 1.778992 -112.050003
v -3.815000 1.778992 -112.050003
v -3.815000 1.779009 112.050003
v -3.815000 1.779009 112.050003
v -3.201000 8.794991 -112.050003
v -3.201000 8.794991 -112.050003
v -3.201000 8.795009 112.050003
v -3.201000 8.795009 112.050003
v -3.201000 1.164991 -112.050003
v -3.201000 1.164991 -112.050003
v -3.201000 1.165008 112.050003
v -3.201000 1.165008 112.050003
v -2.490000 9.292992 -112.050003
v -2.490000 9.292992 -112.050003
v -2.490000 9.293009 112.050003
v -2.490000 9.293009 112.050003
v -2.490000 0.666992 -112.050003
v -2.490000 0.666992 -112.050003
v -2.490000 0.667008 112.050003
v -2.490000 0.667008 112.050003
v -1.703000 9.659991 -112.050003
v -1.703000 9.659991 -112.050003
v -1.703000 9.660008 112.050003
v -1.703000 9.660008 112.050003
v -1.703000 0.299992 -112.050003
v -1.703000 0.299992 -112.050003
v -1.703000 0.300008 112.050003
v -1.703000 0.300008 112.050003
v -0.865000 9.883991 -112.050003
v -0.865000 9.883991 -112.050003
v -0.865000 9.884008 112.050003
v -0.865000 9.884008 112.050003
v -0.865000 0.075992 -112.050003
v -0.865000 0.075992 -112.050003
v -0.865000 0.076008 112.050003
v -0.865000 0.076008 112.050003
v 0.000000 9.959991 -112.050003
v 0.000000 9.959991 -112.050003
v 0.000000 9.960009 112.050003
v 0.000000 9.960009 112.050003
v 0.000000 4.979991 -112.050003
v 0.000000 4.980009 112.050003
v 0.000000 -0.000008 -112.050003
v 0.000000 -0.000008 -112.050003
v 0.000000 0.000008 112.050003
v 0.000000 0.000008 112.050003
v 0.865000 9.883991 -112.050003
v 0.865000 9.883991 -112.050003
v 0.865000 9.884008 112.050003
v 0.865000 9.884008 112.050003
v 0.865000 0.075992 -112.050003
v 0.865000 0.075992 -112.050003
v 0.865000 0.076008 112.050003
v 0.865000 0.076008 112.050003
v 1.703000 9.659991 -112.050003
v 1.703000 9.659991 -112.050003
v 1.703000 9.660008 112.050003
v 1.703000 9.660008 112.050003
v 1.703000 0.299992 -112.050003
v 1.703000 0.299992 -112.050003
v 1.703000 0.300008 112.050003
v 1.703000 0.300008 112.050003
v 2.490000 9.292992 -112.050003
v 2.490000 9.292992 -112.050003
v 2.490000 9.293009 112.050003
v 2.490000 9.293009 112.050003
v 2.490000 0.666992 -112.050003
v 2.490000 0.666992 -112.050003
v 2.490000 0.667008 112.050003
v 2.490000 0.667008 112.050003
v 3.201000 8.794991 -112.050003
v 3.201000 8.794991 -112.050003
v 3.201000 8.795009 112.050003
v 3.201000 8.795009 112.050003
v 3.201000 1.164991 -112.050003
v 3.201000 1.164991 -112.050003
v 3.201000 1.165008 112.050003
v 3.201000 1.165008 112.050003
v 3.815000 8.180991 -112.050003
v 3.815000 8.180991 -112.050003
v 3.815000 8.181008 112.050003
v 3.815000 8.181008 112.050003
v 3.815000 1.778992 -112.050003
v 3.815000 1.778992 -112.050003
v 3.815000 1.779009 112.050003
v 3.815000 1.779009 112.050003
v 4.313000 7.469991 -112.050003
v 4.313000 7.469991 -112.050003
v 4.313000 7.470008 112.050003
v 4.313000 7.470008 112.050003
v 4.313000 2.489992 -112.050003
v 4.313000 2.489992 -112.050003
v 4.313000 2.490008 112.050003
v 4.313000 2.490008 112.050003
v 4.680000 6.682992 -112.050003
v 4.680000 6.682992 -112.050003
v 4.680000 6.683009 112.050003
v 4.680000 6.683009 112.050003
v 4.680000 3.276992 -112.050003
v 4.680000 3.276992 -112.050003
v 4.680000 3.277008 112.050003
v 4.680000 3.277008 112.050003
v 4.904000 5.844991 -112.050003
v 4.904000 5.844991 -112.050003
v 4.904000 5.845008 112.050003
v 4.904000 5.845008 112.050003
v 4.904000 4.114991 -112.050003
v 4.904000 4.114991 -112.050003
v 4.904000 4.115008 112.050003
v 4.904000 4.115008 112.050003
v 4.980000 4.979991 -112.050003
v 4.980000 4.979991 -112.050003
v 4.980000 4.980009 112.050003
v 4.980000 4.980009 112.050003
vn -0.0000 -0.0000 1.0000
vn -0.0000 -0.0000 -1.0000
vn 0.9962 0.0875 -0.0000
vn 0.9661 0.2582 -0.0000
vn 0.9063 0.4226 -0.0000
vn 0.8191 0.5737 -0.0000
vn 0.7071 0.7071 -0.0000
vn 0.5737 0.8191 -0.0000
vn 0.4226 0.9063 -0.0000
vn 0.2582 0.9661 -0.0000
vn 0.0875 0.9962 -0.0000
vn -0.0875 0.9962 -0.0000
vn -0.2582 0.9661 -0.0000
vn -0.4226 0.9063 -0.0000
vn -0.5737 0.8191 -0.0000
vn -0.7071 0.7071 -0.0000
vn -0.8191 0.5737 -0.0000
vn -0.9063 0.4226 -0.0000
vn -0.9661 0.2582 -0.0000
vn -0.9962 0.0875 -0.0000
vn -0.9962 -0.0875 -0.0000
vn -0.9661 -0.2582 -0.0000
vn -0.9063 -0.4226 -0.0000
vn -0.8191 -0.5737 -0.0000
vn -0.7071 -0.7071 -0.0000
vn -0.5737 -0.8191 -0.0000
vn -0.4226 -0.9063 -0.0000
vn -0.2582 -0.9661 -0.0000
vn -0.0875 -0.9962 -0.0000
vn 0.0875 -0.9962 -0.0000
vn 0.2582 -0.9661 -0.0000
vn 0.4226 -0.9063 -0.0000
vn 0.5737 -0.8191 -0.0000
vn 0.7071 -0.7071 -0.0000
vn 0.8191 -0.5737 -0.0000
vn 0.9063 -0.4226 -0.0000
vn 0.9661 -0.2582 -0.0000
vn 0.9962 -0.0875 -0.0000
s 0
usemtl Truc_9cm
f 141//1 74//1 134//1
f 141//1 145//1 74//1
f 145//1 138//1 74//1
f 118//1 74//1 110//1
f 118//1 125//1 74//1
f 125//1 134//1 74//1
f 94//1 74//1 86//1
f 94//1 102//1 74//1
f 102//1 110//1 74//1
f 67//1 74//1 60//1
f 67//1 78//1 74//1
f 78//1 86//1 74//1
f 44//1 74//1 36//1
f 44//1 52//1 74//1
f 52//1 60//1 74//1
f 19//1 74//1 11//1
f 19//1 28//1 74//1
f 28//1 36//1 74//1
f 8//1 74//1 16//1
f 8//1 4//1 74//1
f 4//1 11//1 74//1
f 32//1 74//1 39//1
f 32//1 23//1 74//1
f 23//1 16//1 74//1
f 56//1 74//1 63//1
f 56//1 47//1 74//1
f 47//1 39//1 74//1
f 82//1 74//1 89//1
f 82//1 71//1 74//1
f 71//1 63//1 74//1
f 106//1 74//1 114//1
f 106//1 98//1 74//1
f 98//1 89//1 74//1
f 130//1 74//1 138//1
f 130//1 121//1 74//1
f 121//1 114//1 74//1
f 136//2 73//2 128//2
f 136//2 144//2 73//2
f 144//2 139//2 73//2
f 111//2 73//2 104//2
f 111//2 120//2 73//2
f 120//2 128//2 73//2
f 87//2 73//2 80//2
f 87//2 96//2 73//2
f 96//2 104//2 73//2
f 62//2 73//2 54//2
f 62//2 69//2 73//2
f 69//2 80//2 73//2
f 37//2 73//2 29//2
f 37//2 46//2 73//2
f 46//2 54//2 73//2
f 13//2 73//2 5//2
f 13//2 22//2 73//2
f 22//2 29//2 73//2
f 10//2 73//2 18//2
f 10//2 2//2 73//2
f 2//2 5//2 73//2
f 34//2 73//2 42//2
f 34//2 26//2 73//2
f 26//2 18//2 73//2
f 58//2 73//2 65//2
f 58//2 50//2 73//2
f 50//2 42//2 73//2
f 83//2 73//2 92//2
f 83//2 75//2 73//2
f 75//2 65//2 73//2
f 107//2 73//2 115//2
f 107//2 100//2 73//2
f 100//2 92//2 73//2
f 131//2 73//2 139//2
f 131//2 124//2 73//2
f 124//2 115//2 73//2
f 135//3 137//3 146//3
f 135//4 127//4 137//4
f 127//4 129//4 137//4
f 127//5 119//5 129//5
f 119//5 122//5 129//5
f 119//6 112//6 122//6
f 112//6 113//6 122//6
f 112//7 103//7 113//7
f 103//7 105//7 113//7
f 103//8 95//8 105//8
f 95//8 97//8 105//8
f 95//9 88//9 97//9
f 88//9 90//9 97//9
f 88//10 79//10 90//10
f 79//10 81//10 90//10
f 79//11 70//11 81//11
f 70//11 72//11 81//11
f 70//12 61//12 72//12
f 61//12 64//12 72//12
f 61//13 53//13 64//13
f 53//13 55//13 64//13
f 53//14 45//14 55//14
f 45//14 48//14 55//14
f 45//15 38//15 48//15
f 38//15 40//15 48//15
f 38//16 30//16 40//16
f 30//16 31//16 40//16
f 30//17 21//17 31//17
f 21//17 24//17 31//17
f 21//18 14//18 24//18
f 14//18 15//18 24//18
f 14//19 6//19 15//19
f 6//19 7//19 15//19
f 6//20 1//20 7//20
f 1//20 3//20 7//20
f 1//21 9//21 3//21
f 9//21 12//21 3//21
f 9//22 17//22 12//22
f 17//22 20//22 12//22
f 17//23 25//23 20//23
f 25//23 27//23 20//23
f 25//24 33//24 27//24
f 33//24 35//24 27//24
f 33//25 41//25 35//25
f 41//25 43//25 35//25
f 41//26 49//26 43//26
f 49//26 51//26 43//26
f 49//27 57//27 51//27
f 57//27 59//27 51//27
f 57//28 66//28 59//28
f 66//28 68//28 59//28
f 66//29 76//29 68//29
f 76//29 77//29 68//29
f 76//30 84//30 77//30
f 84//30 85//30 77//30
f 84//31 91//31 85//31
f 91//31 93//31 85//31
f 91//32 99//32 93//32
f 99//32 101//32 93//32
f 99//33 108//33 101//33
f 108//33 109//33 101//33
f 108//34 116//34 109//34
f 116//34 117//34 109//34
f 116//35 123//35 117//35
f 123//35 126//35 117//35
f 123//36 132//36 126//36
f 132//36 133//36 126//36
f 132//37 140//37 133//37
f 140//37 142//37 133//37
f 140//38 143//38 142//38
f 143//38 146//38 142//38
f 143//3 135//3 146//3
